<svg width="327.003" height="71.202" viewBox="0 0 327.003 71.202" xmlns="http://www.w3.org/2000/svg"><g id="svgGroup" stroke-linecap="round" fill-rule="evenodd" font-size="9pt" stroke="#ffffff" stroke-width="0.25mm" fill="#ffffff" style="stroke:#ffffff;stroke-width:0.25mm;fill:#ffffff"><path d="M 198.3 25.501 L 198.3 18.301 L 188.4 18.301 L 188.4 70.001 L 198.3 70.001 L 198.3 37.701 C 198.3 30.601 203.5 25.701 210.9 25.701 C 217.4 25.701 221.9 31.001 221.9 38.601 L 221.9 70.001 L 231.6 70.001 L 231.6 37.701 C 231.6 30.601 236.8 25.701 244.2 25.701 C 250.7 25.701 255.2 31.001 255.2 38.601 L 255.2 70.001 L 264.9 70.001 L 264.9 37.101 C 264.9 25.401 257.1 17.101 246.3 17.101 C 238.5 17.101 231.9 21.101 229.5 27.501 C 226.5 21.101 220.4 17.101 212.9 17.101 C 206.3 17.101 200.9 20.401 198.3 25.501 Z M 45.7 17.301 L 51.5 9.701 C 44.9 3.901 37 0.001 26.4 0.001 C 12.6 0.001 2.6 8.701 2.6 20.201 C 2.6 32.601 11.9 36.801 25.9 40.101 C 37.4 42.701 43.1 45.201 43.1 51.701 C 43.1 57.201 38.2 62.201 28.7 62.201 C 19.4 62.201 12.2 58.401 6.1 52.601 L 0 60.101 C 7.3 67.101 16.8 71.101 28.3 71.101 C 44.5 71.101 53.3 62.301 53.3 50.701 C 53.3 38.401 43.8 33.801 30.1 30.601 C 18.8 27.901 12.9 25.701 12.9 19.301 C 12.9 13.801 18.3 8.901 26 8.901 C 33 8.901 39.9 12.001 45.7 17.301 Z M 75.2 26.001 L 75.2 0.101 L 65.4 0.101 L 65.4 70.001 L 75.2 70.001 L 75.2 37.901 C 75.2 31.201 81.7 25.701 89.5 25.701 C 96.5 25.701 101.4 31.101 101.4 38.801 L 101.4 70.001 L 111.1 70.001 L 111.1 37.101 C 111.1 25.401 103.1 17.101 91.7 17.101 C 84.6 17.101 78.3 20.801 75.2 26.001 Z M 286.3 47.601 L 327 47.601 C 327 29.101 317.9 17.101 302.1 17.101 C 287.8 17.101 276.3 28.501 276.3 44.001 C 276.3 59.901 288.5 71.201 302.9 71.201 C 310.2 71.201 319.2 68.101 323.8 63.201 L 317.6 56.801 C 314.5 60.001 308.2 62.401 302.8 62.401 C 293.9 62.401 287.6 56.201 286.3 47.601 Z M 149.8 71.201 C 164.5 71.201 176.9 58.801 176.9 44.101 C 176.9 29.401 164.5 17.101 149.8 17.101 C 135 17.101 122.5 29.401 122.5 44.101 C 122.5 58.801 135 71.201 149.8 71.201 Z M 149.8 62.601 C 140.3 62.601 132.4 54.201 132.4 44.101 C 132.4 34.101 140.3 25.701 149.8 25.701 C 159.1 25.701 167 34.101 167 44.101 C 167 54.201 159.1 62.601 149.8 62.601 Z M 317.4 39.701 L 286.4 39.701 C 288 31.301 294.5 25.901 302.5 25.901 C 311.4 25.901 316.3 31.701 317.4 39.701 Z" vector-effect="non-scaling-stroke"/></g></svg>